<svg id="レイヤー_9" data-name="レイヤー 9" xmlns="http://www.w3.org/2000/svg" viewBox="0 0 104.31 86.56"><defs><style>.cls-1{fill:#fff;}</style></defs><g id="_グループ_抜き枠" data-name="&lt;グループ&gt;抜き枠"><polygon class="cls-1" points="48.44 18.21 48.91 19.21 53.28 19.21 53.68 18.21 48.44 18.21"/><path class="cls-1" d="M134.69,127.44l-.63.29V158.5H96.82V135.81l-1,.5v22.52a.67.67,0,0,0,.67.67h37.9a.67.67,0,0,0,.67-.67V127.71C134.94,127.62,134.8,127.54,134.69,127.44Z" transform="translate(-64.07 -72.94)"/><path class="cls-1" d="M96.82,127.52l-1,.54v.62l1-.48Z" transform="translate(-64.07 -72.94)"/><path class="cls-1" d="M134.06,119.61a4,4,0,0,1,.45.31l.55-.27V91.81a.68.68,0,0,0-.67-.67h-14l-.39,1h14Z" transform="translate(-64.07 -72.94)"/><path class="cls-1" d="M96.82,118.91V92.14h13.46l-.47-1H96.49a.68.68,0,0,0-.67.67v27.78Z" transform="translate(-64.07 -72.94)"/><g id="_グループ_栞紐" data-name="&lt;グループ&gt;栞紐"><path class="cls-1" d="M115.44,100.82a.47.47,0,0,1-.43-.27l-8.75-18.83a.2.2,0,0,1,0-.15.25.25,0,0,1,.11-.12l.49-.23h.09a.21.21,0,0,1,.18.11l8.26,17.78,10.4-26a.2.2,0,0,1,.18-.12H126l.5.2a.2.2,0,0,1,.11.11.26.26,0,0,1,0,.15l-10.78,27.12a.47.47,0,0,1-.42.29h0Z" transform="translate(-64.07 -72.94)"/></g></g><path class="cls-1" d="M76.76,131.77c4.78-.85,14.69-5.49,22.16-10.65,1.59-1.12,3-2,2.49-2.83,4.09-.72,4.11-.14.81,2.3-6.1,4.52-16,8.94-19.54,10.17l5.18-.91c2.13-.38,2.37-.15,3.07,1.29l1.27,2.59,11.43-5.46a1.14,1.14,0,0,1-.72,1.18L91.74,135a.77.77,0,0,1-1-.25L89,131.08c-.19-.41-.41-.49-1-.38l-11.85,2.09-5.87,10.32c-.65,1.16-1.42,1.22-1.87.31l-4-7.87c-.57-1.11-.38-1.49.94-1.72l9.57-1.69,9.75-17.09,1.29-.65c.53-.29.79-.05.58.32Zm-11.49,2.94c-.38.06-.46.26-.3.52l3.9,6c.24.37.59.38.82,0l4.62-8.14Z" transform="translate(-64.07 -72.94)"/><path class="cls-1" d="M119.62,126.49l-6.19,3c-.55.27-.85.15-.6-.3l1.44-2.55-8.78,4.17c-.81.38-1.16.3-1.23-.09s.12-1.56,1.49-2.73c0,0-.9.54-2.8,1.42l-2,.95a1.14,1.14,0,0,1,.74-1.18l1.09-.54c4.46-2.15,5.58-2.52,7.41-2.85s2.72.15,3,.44l3.1-1.48c.5-.24.8,0,.6.32l-1.47,2.57,5-2.35A1.15,1.15,0,0,1,119.62,126.49Zm-9.34.13c-2.06.36-3.43,1.63-3.55,2.35,0,.26,0,.31.84-.05,3.41-1.53,4.64-2.24,4.64-2.24A2.89,2.89,0,0,0,110.28,126.62Z" transform="translate(-64.07 -72.94)"/><path class="cls-1" d="M122.6,125.08c-.22.12-1.23.65-2.9,1.41l-2.07,1a1.15,1.15,0,0,1,.74-1.18l1.11-.55a39.91,39.91,0,0,1,10.34-3.61c2.59-.45,3,.12,2.93.53s-.84.93-1.33,1v-.12c0-.45-.48-.69-2.29-.37-3.93.69-5.59,2.19-3.92,2.07a17,17,0,0,0,2.71-.48s.38.26-.9.94c-.81.41-1,.69-.93.8s.15.21.45.15c1.57-.27,6.06-2.33,9.45-4.07a1.22,1.22,0,0,1-.74,1.22c-2.85,1.57-8.42,3.93-10.83,4.35-.87.16-1.11,0-1.09-.31s.77-1,2.2-1.85a13.33,13.33,0,0,1-2.86.51C121,126.52,121.88,125.56,122.6,125.08Z" transform="translate(-64.07 -72.94)"/><path class="cls-1" d="M149.74,118.49l-2,3.47,4.91-2.34a1.13,1.13,0,0,1-.73,1.16l-6.2,3c-.54.27-.81.14-.56-.31l1.79-3.16a69.3,69.3,0,0,1-9.41,4.93c-.47.2-.89.14-1-.24s.12-1.56,1.49-2.73a30.77,30.77,0,0,1-2.8,1.43l-2,.94a1.16,1.16,0,0,1,.74-1.18l1.09-.54c4.46-2.15,5.58-2.52,7.41-2.84a3.65,3.65,0,0,1,3,.35c1.17-.71,2.29-1.43,2.29-1.43,2.92-5.14,4.84-8.47,6.36-10.78.95-1.45,1.56-2.06,2-2.14s.58.44.49,1.45C156.16,111.92,153,115.83,149.74,118.49Zm-7.09,2.42c-2.05.36-3.42,1.63-3.55,2.35,0,.26,0,.31.85-.05,3.4-1.53,4.64-2.24,4.64-2.24A3,3,0,0,0,142.65,120.91Zm13-12.73s-.56.9-1.48,2.54c-1.14,2-3.44,6-3.44,6a16.13,16.13,0,0,0,5.05-8.49C155.83,108,155.76,108,155.64,108.18Z" transform="translate(-64.07 -72.94)"/><path class="cls-1" d="M155,119.38c-.21.11-1.23.64-2.9,1.4l-2.07,1a1.15,1.15,0,0,1,.75-1.18l1.1-.55a40.34,40.34,0,0,1,10.35-3.61c2.58-.45,3,.12,2.93.54s-.85.92-1.34,1v-.12c0-.45-.47-.69-2.28-.37-3.94.69-5.6,2.19-3.93,2.07a16.77,16.77,0,0,0,2.71-.48s.38.27-.9.94c-.8.41-.95.69-.93.8s.15.21.46.15c1.56-.27,6.05-2.33,9.44-4.07a1.2,1.2,0,0,1-.74,1.22c-2.85,1.57-8.42,3.93-10.83,4.36-.87.15-1.11,0-1.08-.32s.77-1,2.2-1.84a13.71,13.71,0,0,1-2.87.5C153.36,120.81,154.26,119.85,155,119.38Z" transform="translate(-64.07 -72.94)"/><path class="cls-1" d="M105.94,149.2a.1.1,0,0,1,.07-.11,2.86,2.86,0,0,1,.72-.08c.76,0,1,.27,1,.83s-.25.73-.65,1.09-.75.69-.75,1.19c0,0,0,0,0,0h1.34a.05.05,0,0,1,.06.06v.27s0,.05-.06.05H106s-.07,0-.07-.07v-.2a1.65,1.65,0,0,1,.7-1.39c.48-.44.7-.64.7-1s-.18-.48-.65-.48a4.27,4.27,0,0,0-.65.07,0,0,0,0,1,0-.05Z" transform="translate(-64.07 -72.94)"/><path class="cls-1" d="M110.57,150.76c0,1.45-.25,1.81-1,1.81s-1-.36-1-1.81.26-1.75,1-1.75S110.57,149.37,110.57,150.76Zm-1.67,0c0,1.17.13,1.43.63,1.43s.61-.26.61-1.43-.12-1.36-.61-1.36S108.9,149.63,108.9,150.76Z" transform="translate(-64.07 -72.94)"/><path class="cls-1" d="M111.32,149.2a.1.1,0,0,1,.07-.11,2.73,2.73,0,0,1,.72-.08c.75,0,1,.27,1,.83s-.26.73-.65,1.09-.76.69-.76,1.19c0,0,0,0,0,0h1.34a.05.05,0,0,1,.06.06v.27s0,.05-.06.05h-1.71c-.05,0-.07,0-.07-.07v-.2a1.63,1.63,0,0,1,.7-1.39c.48-.44.69-.64.69-1s-.17-.48-.64-.48a4.09,4.09,0,0,0-.65.07,0,0,0,0,1-.05-.05Z" transform="translate(-64.07 -72.94)"/><path class="cls-1" d="M113.76,149.21a.11.11,0,0,1,.09-.13,1.18,1.18,0,0,1,.39-.06c.42,0,.59.15.59.58v2.87s0,.05,0,.05h-.31a0,0,0,0,1,0-.05v-2.74c0-.24,0-.32-.27-.32l-.34,0s0,0,0,0Z" transform="translate(-64.07 -72.94)"/><path class="cls-1" d="M116.09,151.73a.06.06,0,0,1,.06.06v.68s0,.05-.06.05h-.29a0,0,0,0,1,0-.05v-.68a.06.06,0,0,1,0-.06Z" transform="translate(-64.07 -72.94)"/><path class="cls-1" d="M118.14,149.05a.28.28,0,0,1,.32.3v.85a1.56,1.56,0,0,1-.25.88l-.85,1.42s0,.05-.1,0l-.22-.13q-.08,0,0-.09l.82-1.43a1.13,1.13,0,0,0,.21-.69v-.64c0-.08,0-.1-.1-.1h-1.17a.05.05,0,0,1-.06-.06v-.28a.05.05,0,0,1,.06-.06Z" transform="translate(-64.07 -72.94)"/><path class="cls-1" d="M119.5,151.73a.06.06,0,0,1,.06.06v.68s0,.05-.06.05h-.29a0,0,0,0,1,0-.05v-.68a.06.06,0,0,1,0-.06Z" transform="translate(-64.07 -72.94)"/><path class="cls-1" d="M120.2,149.21a.1.1,0,0,1,.07-.11,2.05,2.05,0,0,1,.65-.09c.78,0,1,.31,1,.85s-.12.66-.4.78c0,0,0,0,0,0,.36.07.52.4.52.83,0,.65-.3,1.06-1.1,1.06a2.64,2.64,0,0,1-.73-.08s-.06,0,0-.11l0-.21a0,0,0,0,1,0,0c.06,0,.33,0,.64,0,.53,0,.74-.18.74-.68s-.14-.6-.65-.6h-.42a.06.06,0,0,1-.06-.06v-.26a.06.06,0,0,1,.06-.06H121c.45,0,.57-.2.57-.55s-.16-.56-.64-.56a4.65,4.65,0,0,0-.61.06s0,0,0-.05Z" transform="translate(-64.07 -72.94)"/><path class="cls-1" d="M124.89,150.76c0,1.45-.26,1.81-1,1.81s-1-.36-1-1.81.26-1.75,1-1.75S124.89,149.37,124.89,150.76Zm-1.67,0c0,1.17.12,1.43.62,1.43s.62-.26.62-1.43-.12-1.36-.62-1.36S123.22,149.63,123.22,150.76Z" transform="translate(-64.07 -72.94)"/></svg>