<svg id="レイヤー_5" data-name="レイヤー 5" xmlns="http://www.w3.org/2000/svg" viewBox="0 0 110.31 112.07"><defs><style>.cls-1{fill:#9fa0a0;}.cls-2{fill:none;stroke:#fff;stroke-linecap:round;stroke-linejoin:round;stroke-width:6px;}</style></defs><g id="_グループ_抜き枠" data-name="&lt;グループ&gt;抜き枠"><polygon class="cls-1" points="51.44 18.21 51.91 19.21 56.28 19.21 56.68 18.21 51.44 18.21"/><path class="cls-1" d="M135.17,72.59h-14l-.4,1h14V140H97.6V73.59h13.46l-.46-1H97.27a.67.67,0,0,0-.67.67v67a.68.68,0,0,0,.67.67h37.9a.68.68,0,0,0,.67-.67v-67A.67.67,0,0,0,135.17,72.59Z" transform="translate(-61.85 -54.38)"/><g id="_グループ_栞紐" data-name="&lt;グループ&gt;栞紐"><path class="cls-1" d="M116.22,82.27a.48.48,0,0,1-.43-.28L107,63.16a.26.26,0,0,1,0-.15.2.2,0,0,1,.11-.11l.49-.23a.15.15,0,0,1,.09,0,.21.21,0,0,1,.18.11l8.26,17.78,10.4-26a.21.21,0,0,1,.19-.13l.07,0,.51.2a.21.21,0,0,1,.11.1.19.19,0,0,1,0,.15L116.66,82a.48.48,0,0,1-.42.3h0Z" transform="translate(-61.85 -54.38)"/></g></g><path class="cls-2" d="M77.54,113.21c4.79-.84,14.69-5.48,22.16-10.65,1.59-1.11,3-2,2.49-2.83,4.09-.72,4.11-.14.82,2.31-6.11,4.51-16,8.94-19.55,10.17l5.19-.92c2.13-.37,2.36-.14,3.06,1.29L93,115.17l11.44-5.45a1.14,1.14,0,0,1-.73,1.17l-11.17,5.53a.76.76,0,0,1-1-.25l-1.69-3.64c-.19-.42-.42-.49-1-.39l-11.86,2.09-5.87,10.32c-.65,1.17-1.42,1.23-1.87.31l-4-7.87c-.57-1.11-.38-1.49.94-1.72l9.57-1.69,9.75-17.09,1.29-.65c.53-.29.79,0,.58.32Zm-11.49,2.94c-.38.07-.46.26-.3.52l3.9,6c.24.36.6.38.82,0l4.63-8.14Z" transform="translate(-61.85 -54.38)"/><path class="cls-2" d="M120.4,107.93l-6.19,3c-.55.27-.84.15-.59-.3l1.43-2.55-8.78,4.18c-.81.37-1.15.29-1.22-.1s.11-1.56,1.48-2.73a30.77,30.77,0,0,1-2.8,1.43l-2,.94a1.16,1.16,0,0,1,.74-1.18l1.09-.54c4.46-2.15,5.58-2.52,7.41-2.84s2.73.14,3,.43l3.1-1.48c.5-.24.81,0,.6.32l-1.47,2.57,5-2.34A1.14,1.14,0,0,1,120.4,107.93Zm-9.34.13c-2,.36-3.42,1.63-3.55,2.35-.05.27,0,.31.85,0,3.4-1.53,4.63-2.23,4.63-2.23A2.86,2.86,0,0,0,111.06,108.06Z" transform="translate(-61.85 -54.38)"/><path class="cls-2" d="M123.38,106.53c-.21.11-1.23.64-2.9,1.4l-2.07.95a1.16,1.16,0,0,1,.75-1.18l1.1-.55a40.34,40.34,0,0,1,10.35-3.61c2.58-.45,2.95.12,2.93.54s-.85.92-1.34,1V105c0-.45-.47-.69-2.28-.37-3.94.69-5.6,2.19-3.93,2.07a16.77,16.77,0,0,0,2.71-.48s.38.27-.9.94c-.8.41-1,.69-.93.8s.15.21.46.16c1.56-.28,6-2.34,9.44-4.08a1.2,1.2,0,0,1-.74,1.22c-2.85,1.57-8.42,3.93-10.83,4.36-.87.15-1.11,0-1.08-.32s.77-1,2.2-1.84a13.71,13.71,0,0,1-2.87.5C121.77,108,122.67,107,123.38,106.53Z" transform="translate(-61.85 -54.38)"/><path class="cls-2" d="M150.52,99.94l-2,3.47,4.91-2.35a1.13,1.13,0,0,1-.73,1.16l-6.2,3c-.54.27-.81.14-.56-.31l1.79-3.15a69.2,69.2,0,0,1-9.41,4.92c-.47.2-.89.14-1-.24s.11-1.55,1.48-2.73a30.77,30.77,0,0,1-2.8,1.43l-2,.94a1.16,1.16,0,0,1,.74-1.18l1.09-.54c4.46-2.15,5.58-2.52,7.41-2.84s2.58.07,3,.35c1.18-.71,2.29-1.43,2.29-1.43,2.92-5.14,4.84-8.47,6.36-10.78.95-1.45,1.56-2.06,2-2.13s.59.44.49,1.44C156.94,93.36,153.73,97.27,150.52,99.94Zm-7.09,2.41c-2.05.36-3.42,1.63-3.55,2.36,0,.26,0,.3.85-.06,3.4-1.53,4.64-2.23,4.64-2.23A2.9,2.9,0,0,0,143.43,102.35Zm13-12.72s-.56.89-1.48,2.53c-1.14,2-3.44,6-3.44,6a16.13,16.13,0,0,0,5.05-8.49C156.61,89.48,156.54,89.43,156.42,89.63Z" transform="translate(-61.85 -54.38)"/><path class="cls-2" d="M155.75,100.82c-.21.12-1.23.64-2.9,1.4l-2.07,1a1.16,1.16,0,0,1,.75-1.18l1.11-.54A39.53,39.53,0,0,1,163,97.84c2.58-.46,3,.12,2.93.53s-.85.92-1.34,1v-.11c0-.46-.47-.7-2.28-.38-3.94.69-5.6,2.19-3.93,2.07a15.62,15.62,0,0,0,2.71-.48s.38.27-.9.94c-.8.41-.95.69-.93.81s.16.2.46.15c1.56-.28,6.06-2.33,9.44-4.08a1.2,1.2,0,0,1-.74,1.22c-2.85,1.57-8.41,3.93-10.83,4.36-.86.15-1.1,0-1.08-.31s.77-1,2.2-1.85a13.71,13.71,0,0,1-2.87.5C154.14,102.25,155,101.3,155.75,100.82Z" transform="translate(-61.85 -54.38)"/><path class="cls-1" d="M77.54,113.21c4.79-.84,14.69-5.48,22.16-10.65,1.59-1.11,3-2,2.49-2.83,4.09-.72,4.11-.14.82,2.31-6.11,4.51-16,8.94-19.55,10.17l5.19-.92c2.13-.37,2.36-.14,3.06,1.29L93,115.17l11.44-5.45a1.14,1.14,0,0,1-.73,1.17l-11.17,5.53a.76.76,0,0,1-1-.25l-1.69-3.64c-.19-.42-.42-.49-1-.39l-11.86,2.09-5.87,10.32c-.65,1.17-1.42,1.23-1.87.31l-4-7.87c-.57-1.11-.38-1.49.94-1.72l9.57-1.69,9.75-17.09,1.29-.65c.53-.29.79,0,.58.32Zm-11.49,2.94c-.38.07-.46.26-.3.52l3.9,6c.24.36.6.38.82,0l4.63-8.14Z" transform="translate(-61.85 -54.38)"/><path class="cls-1" d="M120.4,107.93l-6.19,3c-.55.27-.84.15-.59-.3l1.43-2.55-8.78,4.18c-.81.37-1.15.29-1.22-.1s.11-1.56,1.48-2.73a30.77,30.77,0,0,1-2.8,1.43l-2,.94a1.16,1.16,0,0,1,.74-1.18l1.09-.54c4.46-2.15,5.58-2.52,7.41-2.84s2.73.14,3,.43l3.1-1.48c.5-.24.81,0,.6.32l-1.47,2.57,5-2.34A1.14,1.14,0,0,1,120.4,107.93Zm-9.34.13c-2,.36-3.42,1.63-3.55,2.35-.05.27,0,.31.85,0,3.4-1.53,4.63-2.23,4.63-2.23A2.86,2.86,0,0,0,111.06,108.06Z" transform="translate(-61.85 -54.38)"/><path class="cls-1" d="M123.38,106.53c-.21.11-1.23.64-2.9,1.4l-2.07.95a1.16,1.16,0,0,1,.75-1.18l1.1-.55a40.34,40.34,0,0,1,10.35-3.61c2.58-.45,2.95.12,2.93.54s-.85.92-1.34,1V105c0-.45-.47-.69-2.28-.37-3.94.69-5.6,2.19-3.93,2.07a16.77,16.77,0,0,0,2.71-.48s.38.27-.9.94c-.8.41-1,.69-.93.8s.15.21.46.16c1.56-.28,6-2.34,9.44-4.08a1.2,1.2,0,0,1-.74,1.22c-2.85,1.57-8.42,3.93-10.83,4.36-.87.15-1.11,0-1.08-.32s.77-1,2.2-1.84a13.71,13.71,0,0,1-2.87.5C121.77,108,122.67,107,123.38,106.53Z" transform="translate(-61.85 -54.38)"/><path class="cls-1" d="M150.52,99.94l-2,3.47,4.91-2.35a1.13,1.13,0,0,1-.73,1.16l-6.2,3c-.54.27-.81.14-.56-.31l1.79-3.15a69.2,69.2,0,0,1-9.41,4.92c-.47.2-.89.14-1-.24s.11-1.55,1.48-2.73a30.77,30.77,0,0,1-2.8,1.43l-2,.94a1.16,1.16,0,0,1,.74-1.18l1.09-.54c4.46-2.15,5.58-2.52,7.41-2.84s2.58.07,3,.35c1.18-.71,2.29-1.43,2.29-1.43,2.92-5.14,4.84-8.47,6.36-10.78.95-1.45,1.56-2.06,2-2.13s.59.44.49,1.44C156.94,93.36,153.73,97.27,150.52,99.94Zm-7.09,2.41c-2.05.36-3.42,1.63-3.55,2.36,0,.26,0,.3.85-.06,3.4-1.53,4.64-2.23,4.64-2.23A2.9,2.9,0,0,0,143.43,102.35Zm13-12.72s-.56.89-1.48,2.53c-1.14,2-3.44,6-3.44,6a16.13,16.13,0,0,0,5.05-8.49C156.61,89.48,156.54,89.43,156.42,89.63Z" transform="translate(-61.85 -54.38)"/><path class="cls-1" d="M155.75,100.82c-.21.12-1.23.64-2.9,1.4l-2.07,1a1.16,1.16,0,0,1,.75-1.18l1.11-.54A39.53,39.53,0,0,1,163,97.84c2.58-.46,3,.12,2.93.53s-.85.92-1.34,1v-.11c0-.46-.47-.7-2.28-.38-3.94.69-5.6,2.19-3.93,2.07a15.62,15.62,0,0,0,2.71-.48s.38.27-.9.94c-.8.41-.95.69-.93.81s.16.2.46.15c1.56-.28,6.06-2.33,9.44-4.08a1.2,1.2,0,0,1-.74,1.22c-2.85,1.57-8.41,3.93-10.83,4.36-.86.15-1.1,0-1.08-.31s.77-1,2.2-1.85a13.71,13.71,0,0,1-2.87.5C154.14,102.25,155,101.3,155.75,100.82Z" transform="translate(-61.85 -54.38)"/><path class="cls-1" d="M101.29,152.92c.07,0,.13.06.13.16v13.1a.13.13,0,0,1-.13.14h-.75a.13.13,0,0,1-.13-.14v-6c0-.07,0-.11-.12-.11H95.07a.11.11,0,0,0-.12.11v6a.13.13,0,0,1-.13.14h-.73a.12.12,0,0,1-.13-.14v-13.1c0-.1,0-.16.13-.16h.73c.08,0,.13.06.13.16V159a.11.11,0,0,0,.12.11h5.22c.08,0,.12,0,.12-.11v-5.89c0-.1,0-.16.13-.16Z" transform="translate(-61.85 -54.38)"/><path class="cls-1" d="M109.76,153.15a.84.84,0,0,1,.63-.32.86.86,0,0,1,.64.32l2.33,2.62a1.42,1.42,0,0,1,.4,1.06v9.33a.14.14,0,0,1-.15.16h-.69a.14.14,0,0,1-.15-.16v-3.9c0-.08-.06-.11-.14-.11h-4.51a.11.11,0,0,0-.12.11v3.9a.14.14,0,0,1-.15.16h-.69a.14.14,0,0,1-.15-.16v-9.33a1.42,1.42,0,0,1,.4-1.06Zm.77.86a.22.22,0,0,0-.14-.09s-.07,0-.13.09l-2.07,2.34a.7.7,0,0,0-.19.49v4.25a.13.13,0,0,0,.12.12h4.51a.13.13,0,0,0,.14-.12v-4.25a.7.7,0,0,0-.19-.49Z" transform="translate(-61.85 -54.38)"/><path class="cls-1" d="M126.35,152.92c.12,0,.17,0,.1.16l-3.75,6.08v.17l3.84,6.72c.12.19.1.27-.11.27h-.71c-.17,0-.23,0-.31-.16l-3.5-6.2a.31.31,0,0,0-.28-.17h-1.17a.11.11,0,0,0-.12.12v6.25c0,.1,0,.16-.17.16h-.67a.14.14,0,0,1-.15-.16V153.08a.14.14,0,0,1,.15-.16h.67c.12,0,.17.06.17.16v5.64c0,.08,0,.11.12.11h1.15a.29.29,0,0,0,.27-.17l3.38-5.6a.28.28,0,0,1,.25-.14Z" transform="translate(-61.85 -54.38)"/><path class="cls-1" d="M138.35,152.92a.13.13,0,0,1,.13.14v9.26c0,3.1-.69,4.13-3.69,4.13s-3.69-1-3.69-4.13v-9.26a.13.13,0,0,1,.13-.14H132a.15.15,0,0,1,.15.14v9.33c0,2.59.58,3.12,2.68,3.12s2.7-.53,2.7-3.12v-9.33a.13.13,0,0,1,.13-.14Z" transform="translate(-61.85 -54.38)"/><path class="cls-1" d="M106.73,130.64c0-.06,0-.09.06-.1a2.86,2.86,0,0,1,.72-.08c.76,0,1,.26,1,.82s-.26.73-.65,1.09-.76.7-.76,1.19c0,0,0,0,0,0h1.34a.06.06,0,0,1,.06.06v.27a.06.06,0,0,1-.06.06h-1.71a.07.07,0,0,1-.08-.08v-.2a1.66,1.66,0,0,1,.7-1.39c.48-.44.7-.63.7-1s-.18-.48-.65-.48a4.27,4.27,0,0,0-.65.07s0,0,0,0Z" transform="translate(-61.85 -54.38)"/><path class="cls-1" d="M111.35,132.21c0,1.45-.25,1.8-1,1.8s-1-.35-1-1.8.26-1.75,1-1.75S111.35,130.81,111.35,132.21Zm-1.66,0c0,1.16.12,1.42.62,1.42s.61-.26.61-1.42-.12-1.37-.61-1.37S109.69,131.08,109.69,132.21Z" transform="translate(-61.85 -54.38)"/><path class="cls-1" d="M112.1,130.64c0-.06,0-.09.07-.1a2.79,2.79,0,0,1,.72-.08c.76,0,1,.26,1,.82s-.25.73-.65,1.09-.76.7-.76,1.19c0,0,0,0,0,0h1.34a.06.06,0,0,1,.06.06v.27a.05.05,0,0,1-.06.06h-1.71c-.05,0-.07,0-.07-.08v-.2a1.66,1.66,0,0,1,.7-1.39c.48-.44.7-.63.7-1s-.18-.48-.65-.48a4.09,4.09,0,0,0-.65.07,0,0,0,0,1-.05,0Z" transform="translate(-61.85 -54.38)"/><path class="cls-1" d="M114.54,130.65a.12.12,0,0,1,.09-.13,1.59,1.59,0,0,1,.39-.06c.42,0,.6.16.6.58v2.87a.06.06,0,0,1-.06.06h-.31a.06.06,0,0,1,0-.06v-2.74c0-.23,0-.32-.26-.32s-.27,0-.35,0a0,0,0,0,1,0,0Z" transform="translate(-61.85 -54.38)"/><path class="cls-1" d="M116.88,133.17a.06.06,0,0,1,.05.06v.68a.06.06,0,0,1-.05.06h-.29a.06.06,0,0,1-.06-.06v-.68a.06.06,0,0,1,.06-.06Z" transform="translate(-61.85 -54.38)"/><path class="cls-1" d="M118.92,130.5c.21,0,.32.1.32.29v.86a1.48,1.48,0,0,1-.25.87l-.85,1.42s0,.06-.09,0l-.23-.13s-.06-.05,0-.09l.83-1.42a1.24,1.24,0,0,0,.2-.7V131c0-.07,0-.1-.1-.1h-1.17s0,0,0-.06v-.27s0-.06,0-.06Z" transform="translate(-61.85 -54.38)"/><path class="cls-1" d="M120.28,133.17a.06.06,0,0,1,.06.06v.68a.06.06,0,0,1-.06.06H120a.06.06,0,0,1-.06-.06v-.68a.06.06,0,0,1,.06-.06Z" transform="translate(-61.85 -54.38)"/><path class="cls-1" d="M121,130.66c0-.07,0-.09.07-.11a1.83,1.83,0,0,1,.65-.09c.79,0,1,.3,1,.84s-.12.66-.39.78t0,0c.35.07.51.4.51.83a1,1,0,0,1-1.1,1.07,2.64,2.64,0,0,1-.73-.08s-.06-.05,0-.12l0-.2a.05.05,0,0,1,0-.05,4.93,4.93,0,0,0,.64.06c.52,0,.73-.19.73-.69s-.14-.59-.65-.59h-.42a.06.06,0,0,1-.06-.06V132a.06.06,0,0,1,.06-.06h.39c.44,0,.56-.2.56-.55s-.16-.56-.64-.56a4.41,4.41,0,0,0-.6.06,0,0,0,0,1,0-.05Z" transform="translate(-61.85 -54.38)"/><path class="cls-1" d="M125.67,132.21c0,1.45-.25,1.8-1,1.8s-1-.35-1-1.8.26-1.75,1-1.75S125.67,130.81,125.67,132.21Zm-1.67,0c0,1.16.13,1.42.62,1.42s.62-.26.62-1.42-.12-1.37-.62-1.37S124,131.08,124,132.21Z" transform="translate(-61.85 -54.38)"/></svg>