<svg id="レイヤー_10" data-name="レイヤー 10" xmlns="http://www.w3.org/2000/svg" viewBox="0 0 44.52 13.62"><defs><style>.cls-1{fill:#9fa0a0;}</style></defs><path class="cls-1" d="M101.29,109.5c.07,0,.13.06.13.16v13.1a.13.13,0,0,1-.13.14h-.75a.13.13,0,0,1-.13-.14v-6a.11.11,0,0,0-.12-.12H95.07a.12.12,0,0,0-.12.12v6a.13.13,0,0,1-.13.14h-.73a.12.12,0,0,1-.13-.14v-13.1c0-.1,0-.16.13-.16h.73c.08,0,.13.06.13.16v5.89a.12.12,0,0,0,.12.12h5.22a.11.11,0,0,0,.12-.12v-5.89c0-.1,0-.16.13-.16Z" transform="translate(-93.96 -109.41)"/><path class="cls-1" d="M109.76,109.73a.84.84,0,0,1,.63-.32.86.86,0,0,1,.64.32l2.33,2.63a1.39,1.39,0,0,1,.4,1v9.34a.14.14,0,0,1-.15.15h-.69a.14.14,0,0,1-.15-.15v-3.91c0-.07-.06-.11-.14-.11h-4.51a.11.11,0,0,0-.12.11v3.91a.14.14,0,0,1-.15.15h-.69a.14.14,0,0,1-.15-.15v-9.34a1.39,1.39,0,0,1,.4-1Zm.77.86a.22.22,0,0,0-.14-.09s-.07,0-.13.09l-2.07,2.34a.73.73,0,0,0-.19.5v4.25a.13.13,0,0,0,.12.11h4.51a.13.13,0,0,0,.14-.11v-4.25a.73.73,0,0,0-.19-.5Z" transform="translate(-93.96 -109.41)"/><path class="cls-1" d="M126.35,109.5c.12,0,.17,0,.1.16l-3.75,6.08v.17l3.84,6.72c.12.19.1.27-.11.27h-.71c-.17,0-.23,0-.31-.15l-3.5-6.2a.3.3,0,0,0-.28-.18h-1.17a.11.11,0,0,0-.12.12v6.26c0,.09,0,.15-.17.15h-.67a.14.14,0,0,1-.15-.15V109.66a.14.14,0,0,1,.15-.16h.67c.12,0,.17.06.17.16v5.64a.11.11,0,0,0,.12.12h1.15a.3.3,0,0,0,.27-.18l3.38-5.6a.28.28,0,0,1,.25-.14Z" transform="translate(-93.96 -109.41)"/><path class="cls-1" d="M138.35,109.5a.13.13,0,0,1,.13.14v9.26c0,3.1-.69,4.13-3.69,4.13s-3.69-1-3.69-4.13v-9.26a.13.13,0,0,1,.13-.14H132a.15.15,0,0,1,.15.14V119c0,2.58.58,3.11,2.68,3.11s2.7-.53,2.7-3.11v-9.34a.13.13,0,0,1,.13-.14Z" transform="translate(-93.96 -109.41)"/></svg>